HIERARCHY
ROOT Hips
{
	OFFSET 0.00000 0.00000 0.00000
	CHANNELS 6 Xposition Yposition Zposition Yrotation Zrotation Xrotation 
	JOINT Lumbar
	{
		OFFSET 0 0 0
		CHANNELS 3 Zrotation Xrotation Yrotation
		JOINT Neck
		{
			OFFSET 0.00 0.2701 0.00
			CHANNELS 3 Zrotation Xrotation Yrotation
			End Site
			{
				OFFSET 0.00 0.1379 0.00
			}
		}
		JOINT RightShoulder
		{
			OFFSET 0.0119 0.2289 0.1181
			CHANNELS 3 Zrotation Xrotation Yrotation
			JOINT RightElbow
			{
				OFFSET 0.00 -0.1475 0.00
				CHANNELS 2 Zrotation Yrotation
				JOINT RightWrist
				{
					OFFSET 0.00 -0.1605 0.00
					CHANNELS 2 Zrotation Xrotation
					End Site
					{
						OFFSET 0.0040 -0.1068 0.0006
					}
				}
			}
		}
		JOINT LeftShoulder
		{
			OFFSET 0.0119 0.2289 -0.1181
			CHANNELS 3 Zrotation Xrotation Yrotation
			JOINT LeftElbow
			{
				OFFSET 0.00 -0.1475 0.00
				CHANNELS 2 Zrotation Yrotation
				JOINT LeftWrist
				{
					OFFSET 0.00 -0.1605 0.00
					CHANNELS 2 Zrotation Xrotation
					End Site
					{
						OFFSET 0.0040 -0.1068 -0.0006
					}
				}
			}
		}
	}
	JOINT RightHip
	{
		OFFSET 0.0316 -0.0424 0.0458
		CHANNELS 3 Zrotation Xrotation Yrotation
		JOINT RightKnee
		{
			OFFSET 0.00 -0.2438 0.00
			CHANNELS 1 Zrotation
			JOINT RightAnkle
			{
				OFFSET 0.00 -0.2449 0.00
				CHANNELS 3 Zrotation Xrotation Yrotation
				End Site
				{
					OFFSET 0.1237 -0.0542 0.0051
				}
			}
		}
	}
	JOINT LeftHip
	{
		OFFSET 0.0316 -0.0424 -0.0458
		CHANNELS 3 Zrotation Xrotation Yrotation
		JOINT LeftKnee
		{
			OFFSET 0.00 -0.2438 0.00
			CHANNELS 1 Zrotation
			JOINT LeftAnkle
			{
				OFFSET 0.00 -0.2449 0.00
				CHANNELS 3 Zrotation Xrotation Yrotation
				End Site
				{
					OFFSET 0.1237 -0.0542 -0.0051
				}
			}
		}
	}
}
MOTION
Frames: 22
Frame Time: 0.02
-1.50216 -0.30833 -0.27172 543.31131 -24.82074 13.33697 19.23959 -2.20239 -4.06102 -3.475 10.43514 -2.11994 29.82486 -20.62244 -5.17187 73.33495 75.64667 -6.80875 1.75861 4.73767 11.34363 -5.03309 98.45845 -80.8374 -2.25048 -0.4494 -0.58801 -8.38619 -18.29794 -89.45057 -6.67275 -2.48944 -3.43911 84.79466 11.81309 3.04331 -136.07355 -5.99889 0.94612 2.6849
-1.50264 -0.30816 -0.27268 543.47155 -24.81812 13.43773 19.32649 -2.24811 -4.48503 -3.30062 9.99287 -2.11994 29.33055 -20.92036 -4.58096 74.34761 76.38161 -6.66179 1.28523 5.07432 11.33895 -5.3833 98.42209 -80.90707 -2.1775 -0.14722 -0.63208 -8.07179 -18.21554 -89.17655 -6.71104 -2.51754 -3.45469 84.7337 11.83305 3.243 -136.07809 -5.97693 0.96659 2.69601
-1.50329 -0.30796 -0.27366 543.58539 -24.78222 13.54657 19.42884 -2.31456 -4.89825 -3.08839 9.47193 -2.11994 29.23525 -21.40597 -3.73508 75.6805 77.06933 -6.57795 0.75498 5.36583 11.34896 -5.73039 98.42734 -81.06385 -2.05279 0.3416 -0.71523 -7.71879 -18.04471 -88.91197 -6.75175 -2.5613 -3.47851 84.59852 11.84135 3.44538 -136.08957 -5.95546 0.98709 2.70709
-1.50386 -0.30777 -0.27461 543.71835 -24.76429 13.65488 19.52985 -2.36956 -5.31359 -2.88909 8.98145 -2.11994 29.01273 -21.81667 -2.98178 76.89858 77.73547 -6.47643 0.28073 5.67642 11.35015 -6.07483 98.41362 -81.17634 -1.95337 0.72921 -0.78106 -7.39754 -17.92104 -88.64295 -6.79055 -2.59644 -3.49777 84.49493 11.86255 3.65414 -136.09652 -5.93407 1.00702 2.71779
-1.50442 -0.30759 -0.27562 543.8597 -24.73479 13.7503 19.60853 -2.43421 -5.7428 -2.70714 8.51046 -2.11994 28.56194 -22.18943 -2.32032 77.99841 78.59764 -6.32591 -0.31859 5.99327 11.35981 -6.43495 98.39979 -81.30683 -1.84589 1.18464 -0.84482 -7.01441 -17.76715 -88.37136 -6.83309 -2.63798 -3.52046 84.39986 11.85285 3.83331 -136.10941 -5.91108 1.02956 2.73029
-1.50505 -0.30739 -0.27652 543.97224 -24.72045 13.87382 19.73668 -2.48343 -6.13946 -2.48119 7.98248 -2.11994 28.68775 -22.68134 -1.40692 79.41077 79.04173 -6.29242 -0.67487 6.28663 11.35559 -6.76283 98.39546 -81.42131 -1.7433 1.54202 -0.9238 -6.75192 -17.65633 -88.10786 -6.8683 -2.66978 -3.53793 84.2685 11.90336 4.07129 -136.11133 -5.89178 1.0465 2.73895
-1.50582 -0.30713 -0.27707 544.02012 -24.76693 14.07955 19.99881 -2.48321 -6.45214 -2.13245 7.30182 -2.11994 30.22828 -23.4824 0.1071 81.67238 78.25614 -6.57896 -0.3082 6.52169 11.309 -6.99539 98.41639 -81.46961 -1.66388 1.60509 -1.01615 -6.82904 -17.67528 -87.87352 -6.88258 -2.67223 -3.53956 84.06865 12.13458 4.50184 -136.08347 -5.8812 1.04891 2.73729
-1.50665 -0.30684 -0.2775 544.04002 -24.82789 14.31205 20.30983 -2.46704 -6.73137 -1.74282 6.56967 -2.11994 32.34846 -24.39101 1.86988 84.22286 77.06398 -6.97933 0.29779 6.73534 11.24814 -7.1973 98.44394 -81.49934 -1.59134 1.56069 -1.12566 -7.02914 -17.74216 -87.64583 -6.8894 -2.66415 -3.53559 83.83258 12.42473 4.98584 -136.04387 -5.8746 1.04548 2.7317
-1.50746 -0.30657 -0.27799 544.07045 -24.87523 14.52807 20.5974 -2.45895 -7.02384 -1.3786 5.87055 -2.11994 34.25545 -25.23344 3.53979 86.60024 76.11231 -7.32001 0.76998 6.96172 11.19409 -7.41767 98.46256 -81.53804 -1.51815 1.54982 -1.23982 -7.17579 -17.79471 -87.40974 -6.8996 -2.6599 -3.53375 83.60446 12.68011 5.4251 -136.00828 -5.8671 1.04408 2.72771
-1.50824 -0.30629 -0.27848 544.10841 -24.95109 14.76274 20.89047 -2.44747 -7.32517 -0.9836 5.12706 -2.11994 35.96729 -26.15761 5.13659 89.17276 74.92613 -7.69637 1.34727 7.17416 11.13895 -7.61773 98.50745 -81.57679 -1.4344 1.60466 -1.30348 -7.31298 -17.81458 -87.19678 -6.90981 -2.65993 -3.53379 83.40964 12.96829 5.95049 -135.97874 -5.85578 1.04532 2.72448
-1.50909 -0.30603 -0.27895 544.12474 -24.97144 14.96462 21.18382 -2.43979 -7.59905 -0.6443 4.46595 -2.11994 38.2144 -26.932 6.93758 91.39408 74.1299 -8.02473 1.76147 7.4108 11.08279 -7.85418 98.49887 -81.61079 -1.37279 1.50142 -1.47506 -7.49681 -17.91271 -86.93688 -6.91834 -2.6487 -3.52867 83.13785 13.20295 6.30948 -135.93343 -5.85337 1.03968 2.71875
-1.51008 -0.30585 -0.27939 544.08766 -24.83488 15.07092 21.46297 -2.43942 -7.8151 -0.46235 4.03577 -2.11994 41.82467 -27.28803 9.2713 92.6501 74.53048 -8.19207 1.6829 7.72198 11.02453 -8.1872 98.33917 -81.62786 -1.38989 0.9282 -1.94738 -7.8027 -18.23504 -86.54797 -6.92275 -2.60613 -3.50921 82.66266 13.26961 6.19267 -135.85 -5.87453 1.01653 2.70702
-1.51112 -0.3057 -0.27983 544.03012 -24.64206 15.14289 21.74116 -2.44465 -8.00272 -0.33937 3.69246 -2.11994 45.94473 -27.48479 11.79391 93.52633 75.33363 -8.30716 1.42972 8.05764 10.9661 -8.55998 98.12568 -81.64169 -1.42605 0.20898 -2.52617 -8.1466 -18.63068 -86.11128 -6.92595 -2.55313 -3.48503 82.11168 13.28131 5.90694 -135.75069 -5.90452 0.98668 2.69293
-1.51214 -0.30553 -0.28028 543.98253 -24.4753 15.22965 22.02176 -2.45182 -8.19717 -0.19372 3.3157 -2.11994 49.81399 -27.73918 14.21064 94.52638 75.93943 -8.44609 1.24555 8.38117 10.90961 -8.92216 97.93769 -81.66239 -1.44065 -0.40402 -3.0515 -8.45866 -18.98084 -85.69476 -6.93055 -2.50659 -3.46389 81.5955 13.32229 5.70094 -135.65682 -5.93055 0.95985 2.67997
-1.51316 -0.30538 -0.28071 543.93116 -24.30726 15.32112 22.29594 -2.43946 -8.41684 -0.02881 2.91136 -2.11994 53.79192 -28.05907 16.72549 95.7455 76.59272 -8.58797 1.11128 8.70972 10.8451 -9.25203 97.74507 -81.66073 -1.50842 -1.18543 -3.59905 -8.83866 -19.38611 -85.28433 -6.9313 -2.4521 -3.43865 81.07616 13.34798 5.48514 -135.56965 -5.95659 0.93284 2.66663
-1.51419 -0.30519 -0.28119 543.88321 -24.12797 15.39382 22.58238 -2.46937 -8.57683 0.08099 2.58614 -2.11994 57.64763 -28.20409 19.0717 96.41075 77.24685 -8.71066 0.83111 9.03196 10.79701 -9.65868 97.54974 -81.70383 -1.47176 -1.65383 -4.12519 -9.08187 -19.69072 -84.8506 -6.93986 -2.41226 -3.42108 80.5463 13.39068 5.24786 -135.46539 -5.98454 0.9048 2.6536
-1.51526 -0.30488 -0.28181 543.84973 -23.93459 15.42705 22.90474 -2.61432 -8.58599 0.05646 2.45534 -2.11994 61.11446 -27.89771 20.95281 95.66792 77.8167 -8.78454 0.16806 9.34706 10.79813 -10.27041 97.35559 -81.88231 -1.12566 -1.18313 -4.56772 -8.96192 -19.7235 -84.35699 -6.97043 -2.41153 -3.4241 80.0027 13.50262 5.00194 -135.31367 -6.01651 0.87456 2.64167
-1.51635 -0.30453 -0.28248 543.82057 -23.73122 15.44176 23.23885 -2.80175 -8.53489 -0.02237 2.40188 -2.11994 64.42194 -27.42195 22.64659 94.37428 78.37319 -8.84151 -0.63223 9.65168 10.8152 -10.95738 97.16142 -82.10403 -0.67669 -0.39896 -4.98482 -8.69882 -19.64882 -83.84274 -7.00887 -2.42654 -3.43528 79.45198 13.63192 4.73846 -135.14611 -6.0499 0.84372 2.63022
-1.51743 -0.3042 -0.28314 543.78955 -23.53017 15.46218 23.56616 -2.97008 -8.507 -0.07876 2.31523 -2.11994 67.75392 -27.02772 24.39553 93.31229 78.93026 -8.91188 -1.35662 9.95101 10.82248 -11.60859 96.97007 -82.29875 -0.28568 0.21639 -5.41222 -8.48383 -19.6059 -83.34284 -7.04369 -2.43714 -3.44394 78.90675 13.74684 4.47631 -134.98856 -6.08198 0.81386 2.6188
-1.51851 -0.30384 -0.28377 543.75725 -23.33629 15.49266 23.89975 -3.13783 -8.49587 -0.12767 2.22363 -2.11994 71.31491 -26.60764 26.28216 92.31486 79.52494 -8.95819 -2.14617 10.29512 10.84026 -12.26898 96.76468 -82.52412 0.15143 0.9371 -5.84794 -8.33808 -19.63311 -82.82092 -7.07879 -2.43638 -3.44766 78.34907 13.88616 4.2354 -134.8186 -6.11714 0.78083 2.60628
-1.51959 -0.30354 -0.28448 543.72907 -23.12615 15.49843 24.22289 -3.31669 -8.4357 -0.2044 2.15917 -2.11994 74.34363 -26.20467 27.82949 91.05858 80.0321 -9.04899 -2.8277 10.54126 10.84022 -12.92608 96.58959 -82.69626 0.5179 1.51571 -6.2598 -8.01829 -19.49344 -82.33978 -7.11499 -2.46244 -3.46335 77.81697 13.98089 3.94951 -134.67091 -6.14618 0.75427 2.59615
-1.52063 -0.3034 -0.2854 543.70998 -22.8711 15.43908 24.51572 -3.51675 -8.25652 -0.34344 2.15388 -2.11994 76.02732 -25.87896 28.53069 89.21067 80.30607 -9.28573 -3.19866 10.5351 10.78498 -13.56813 96.49518 -82.70852 0.65829 1.61757 -6.60328 -7.21175 -18.86904 -81.98379 -7.1539 -2.56511 -3.51315 77.35486 13.93585 3.53394 -134.58916 -6.15728 0.7465 2.59281
